<svg xmlns="http://www.w3.org/2000/svg" width="215.614" height="47" viewBox="0 0 215.614 47">
    <defs>
        <filter id="prefix__손가락을_이용해서_숨겨진_소실점을_찾아보세요_" width="175" height="47" x="40.614" y="0" filterUnits="userSpaceOnUse">
            <feOffset dx="3" dy="3"/>
            <feGaussianBlur result="blur" stdDeviation="1.5"/>
            <feFlood flood-opacity=".6"/>
            <feComposite in2="blur" operator="in"/>
            <feComposite in="SourceGraphic"/>
        </filter>
    </defs>
    <g id="prefix__hands" transform="translate(-327.117 -230.031)">
        <g filter="url(#prefix__손가락을_이용해서_숨겨진_소실점을_찾아보세요_)" transform="translate(327.12 230.03)">
            <text id="prefix__손가락을_이용해서_숨겨진_소실점을_찾아보세요_2" fill="aqua" data-name="손가락을 이용해서 숨겨진 소실점을 찾아보세요!" font-family="NotoSansKR-Medium, Noto Sans KR" font-size="14px" font-weight="500" transform="translate(42.11 17.5)">
                <tspan x="0" y="0">손가락을 이용해서</tspan><tspan x="0" y="18">숨겨진 소실점을 찾아보세요!</tspan>
            </text>
        </g>
        <circle id="prefix__타원_3" cx="4.56" cy="4.56" r="4.56" fill="#fd461d" data-name="타원 3" transform="rotate(-23 740.535 -694.794)"/>
        <path id="prefix__패스_23" fill="aqua" d="M23.578 14.792a2.928 2.928 0 0 0-1.478.408v-.411a2.957 2.957 0 0 0-4.614-2.45 2.919 2.919 0 0 0-4.261-1.576V2.958a2.958 2.958 0 1 0-5.917 0v15.781l-2.9-4.915a2.363 2.363 0 0 0-3.092-.736 2.4 2.4 0 0 0-1.111 3.159c.115.321 2.841 7.906 6.275 11.9.825.9 2.178 2.7 2.3 3.718a.739.739 0 0 0 .734.655.677.677 0 0 0 .085 0 .739.739 0 0 0 .65-.819c-.211-1.828-2.425-4.278-2.659-4.532C4.348 23.4 1.626 15.825 1.593 15.734c-.316-.824.107-1.183.386-1.323a.915.915 0 0 1 1.169.191l4.261 7.22a.687.687 0 0 0 .058.065.593.593 0 0 0 .216.192.713.713 0 0 0 .128.061.729.729 0 0 0 .146.03.738.738 0 0 0 .089.018c.017 0 .03-.008.046-.009a1.115 1.115 0 0 0 .283-.077c.015-.007.031-.007.045-.016a.652.652 0 0 0 .068-.06.711.711 0 0 0 .111-.1.957.957 0 0 0 .139-.242.727.727 0 0 0 .03-.149.694.694 0 0 0 .018-.088V2.958a1.479 1.479 0 1 1 2.958 0v12.573a.74.74 0 1 0 1.479 0v-2.218a1.479 1.479 0 1 1 2.958 0v3.7a.74.74 0 1 0 1.479 0v-2.221a1.479 1.479 0 0 1 2.958 0v3.7a.74.74 0 1 0 1.479 0v-.742a1.481 1.481 0 0 1 1.479-1.479c.888 0 1.021.971 1.025 1.471a23.064 23.064 0 0 1-1.908 6.793 29.588 29.588 0 0 0-2.08 7.124.74.74 0 0 0 .6.855.794.794 0 0 0 .127.011.739.739 0 0 0 .728-.613 28.088 28.088 0 0 1 1.941-6.706 24.077 24.077 0 0 0 2.064-7.386c.005-1.839-.973-3.028-2.495-3.028z" data-name="패스 23" transform="rotate(-23 754.583 -683.074)"/>
    </g>
</svg>
