<svg xmlns="http://www.w3.org/2000/svg" width="32.843" height="21.996" viewBox="0 0 32.843 21.996">
    <defs>
        <filter id="prefix__패스_7" width="16.877" height="19.511" x="15.965" y="2.486" filterUnits="userSpaceOnUse">
            <feOffset dx="1" dy="1"/>
            <feGaussianBlur result="blur" stdDeviation="1.5"/>
            <feFlood flood-opacity=".502"/>
            <feComposite in2="blur" operator="in"/>
            <feComposite in="SourceGraphic"/>
        </filter>
        <filter id="prefix__패스_8" width="16.877" height="19.511" x="0" y="2.486" filterUnits="userSpaceOnUse">
            <feOffset dx="1" dy="1"/>
            <feGaussianBlur result="blur-2" stdDeviation="1.5"/>
            <feFlood flood-opacity=".502"/>
            <feComposite in2="blur-2" operator="in"/>
            <feComposite in="SourceGraphic"/>
        </filter>
        <filter id="prefix__패스_9" width="22.346" height="21.996" x="5.234" y="0" filterUnits="userSpaceOnUse">
            <feOffset dx="1" dy="1"/>
            <feGaussianBlur result="blur-3" stdDeviation="1.5"/>
            <feFlood flood-opacity=".502"/>
            <feComposite in2="blur-3" operator="in"/>
            <feComposite in="SourceGraphic"/>
        </filter>
        <style>
            .prefix__cls-1{fill:#fff}
        </style>
    </defs>
    <g id="prefix__ico_12mens">
        <g filter="url(#prefix__패스_7)" transform="translate(3.5 3.5) translate(-3.5 -3.5)">
            <path id="prefix__패스_7-2" d="M87.611 65.02c-.951-.677-2.411-.318-3.32-1.523 0 0-.339-.381.423-1.311a4.641 4.641 0 0 0 .635-3.553 2.452 2.452 0 0 0-4.78 0 4.64 4.64 0 0 0 .634 3.553 1.813 1.813 0 0 1 .5 1.01 3.834 3.834 0 0 1 1.036.506 3.948 3.948 0 0 1 1.3 3.538h4.29s.233-1.54-.718-2.22z" class="prefix__cls-1" data-name="패스 7" transform="translate(-61.01 -50.74)"/>
        </g>
        <g filter="url(#prefix__패스_8)" transform="translate(3.5 3.5) translate(-3.5 -3.5)">
            <path id="prefix__패스_8-2" d="M40.988 63.7a3.837 3.837 0 0 1 1.065-.515 1.83 1.83 0 0 1 .5-1 4.644 4.644 0 0 0 .634-3.553 2.452 2.452 0 0 0-4.779 0 4.64 4.64 0 0 0 .634 3.553c.761.93.423 1.311.423 1.311-.909 1.205-2.369.846-3.32 1.523s-.719 2.22-.719 2.22h4.261a3.95 3.95 0 0 1 1.301-3.539z" class="prefix__cls-1" data-name="패스 8" transform="translate(-31.9 -50.74)"/>
        </g>
        <g filter="url(#prefix__패스_9)" transform="translate(3.5 3.5) translate(-3.5 -3.5)">
            <path id="prefix__패스_9-2" d="M62.6 59.962a3.3 3.3 0 0 0-1.1-.47c-1.027-.268-2.19-.339-3-1.413 0 0-.419-.471.522-1.621a5.735 5.735 0 0 0 .784-4.394 3.032 3.032 0 0 0-5.909 0 5.736 5.736 0 0 0 .785 4.394c.941 1.151.522 1.621.522 1.621-.8 1.067-1.957 1.143-2.979 1.407a3.345 3.345 0 0 0-1.126.476c-1.177.837-.889 2.746-.889 2.746h13.281s.288-1.908-.891-2.746z" class="prefix__cls-1" data-name="패스 9" transform="translate(-41.44 -46.21)"/>
        </g>
    </g>
</svg>
