<svg xmlns="http://www.w3.org/2000/svg" width="142" height="20" viewBox="0 0 142 20">
    <defs>
        <style>
            .cls-1,.cls-2{fill:#fff}.cls-1{font-size:15px;font-family:AppleSDGothicNeo-Regular,Apple SD Gothic Neo;letter-spacing:-.01em}.cls-3{clip-path:url(#clip-path)}.cls-4{clip-path:url(#clip-path-2)}.cls-5{fill:#00b1c7}.cls-6{clip-path:url(#clip-path-3)}.cls-7{clip-path:url(#clip-path-5)}.cls-8{clip-path:url(#clip-path-6)}.cls-9{fill:#4d4da0}.cls-10{clip-path:url(#clip-path-7)}.cls-11{fill:#ff4d00}.cls-12{clip-path:url(#clip-path-11)}.cls-13{clip-path:url(#clip-path-13)}
        </style>
        <clipPath id="clip-path">
            <path id="패스_45" d="M6.946 3.633a3.473 3.473 0 1 0-6.946 0v10.691l6.946.411z" data-name="패스 45" transform="translate(0 -.129)"/>
        </clipPath>
        <clipPath id="clip-path-2">
            <path id="사각형_13" d="M0 0h58.202v19.871H0z" data-name="사각형 13"/>
        </clipPath>
        <clipPath id="clip-path-3">
            <ellipse id="타원_1" cx="2.083" cy="2.101" data-name="타원 1" rx="2.083" ry="2.101"/>
        </clipPath>
        <clipPath id="clip-path-5">
            <path id="패스_46" d="M4.919 5.715a1.459 1.459 0 1 0-1.445-1.459 1.451 1.451 0 0 0 1.445 1.459z" data-name="패스 46" transform="translate(-3.474 -2.797)"/>
        </clipPath>
        <clipPath id="clip-path-6">
            <path id="사각형_17" d="M0 0h58.202v19.871H0z" data-name="사각형 17"/>
        </clipPath>
        <clipPath id="clip-path-7">
            <path id="패스_47" d="M17.33 16.192A3.522 3.522 0 0 0 18.6 11.4a3.458 3.458 0 0 0-4.746-1.284l-4.793 2.747v8.179z" data-name="패스 47" transform="translate(-9.061 -9.65)"/>
        </clipPath>
        <clipPath id="clip-path-11">
            <path id="패스_48" d="M17.972 15.238a1.459 1.459 0 1 0-1.445-1.459 1.451 1.451 0 0 0 1.445 1.459z" data-name="패스 48" transform="translate(-16.527 -12.32)"/>
        </clipPath>
        <clipPath id="clip-path-13">
            <path id="패스_49" d="M0 17.525l6.946-3.683v8.178z" data-name="패스 49" transform="translate(0 -13.842)"/>
        </clipPath>
    </defs>
    <g id="letsee_logo" data-name="letsee logo" transform="translate(-325 -313)">
        <text id="Powered_by_" class="cls-1" data-name="Powered by" transform="translate(364 327)">
            <tspan x="-38.693" y="0">Powered by</tspan>
        </text>
        <g id="logo_white" transform="translate(407.972 313)">
            <g id="그룹_27" data-name="그룹 27">
                <path id="패스_39" d="M48.383 10.2V8.948H46.57V5.889l-1.341.872v2.182h-1.308V10.2h1.313v4.487c0 1.428.8 2.481 2.177 2.39a1.72 1.72 0 0 0 .916-.3V15.44a1.724 1.724 0 0 1-.812.251c-.675.032-.94-.46-.94-1.187v-4.31h1.809z" class="cls-2" data-name="패스 39" transform="translate(-10.251 -1.474)"/>
                <path id="패스_40" d="M29.144 15.579v-9.69l-1.412.926v10.22h5.152v-1.456z" class="cls-2" data-name="패스 40" transform="translate(-6.473 -1.474)"/>
                <path id="패스_41" d="M54.972 11.078l1.072-.619a2.991 2.991 0 0 0-2.479-1.034c-1.667 0-2.531 1.1-2.489 2.021.052 1.1.765 1.6 2.271 2.149 1.072.387 1.5.656 1.5 1.058 0 .468-.623.756-1.379.756a2.3 2.3 0 0 1-1.563-.567l-1.138.656a3.483 3.483 0 0 0 2.7 1.129c1.823 0 2.758-1.025 2.673-2.031s-.689-1.478-1.955-1.955c-1.332-.5-1.87-.8-1.87-1.294 0-.411.463-.831 1.242-.831a1.962 1.962 0 0 1 1.421.562" class="cls-2" data-name="패스 41" transform="translate(-11.849 -1.487)"/>
                <path id="패스_42" d="M41.646 13.03c0-2.059-1.067-3.617-3.249-3.617a3.463 3.463 0 0 0-3.575 3.617 3.443 3.443 0 0 0 3.6 3.589 3.682 3.682 0 0 0 2.937-1.407l-1.059-.619a2.743 2.743 0 0 1-1.875.808 2.138 2.138 0 0 1-2.248-1.983h5.459zm-5.446-.624a2.12 2.12 0 0 1 2.1-1.851 1.874 1.874 0 0 1 1.955 1.851z" class="cls-2" data-name="패스 42" transform="translate(-8.128 -1.485)"/>
                <path id="패스_43" d="M65.177 13.03c0-2.059-1.067-3.617-3.249-3.617a3.463 3.463 0 0 0-3.575 3.617 3.443 3.443 0 0 0 3.6 3.589 3.682 3.682 0 0 0 2.937-1.407l-1.063-.619a2.743 2.743 0 0 1-1.875.808 2.138 2.138 0 0 1-2.252-1.984h5.459zm-5.483-.623a2.12 2.12 0 0 1 2.1-1.851 1.874 1.874 0 0 1 1.955 1.851z" class="cls-2" data-name="패스 43" transform="translate(-13.62 -1.485)"/>
                <path id="패스_44" d="M74.922 13.03c0-2.059-1.067-3.617-3.249-3.617A3.463 3.463 0 0 0 68.1 13.03a3.445 3.445 0 0 0 3.6 3.589 3.682 3.682 0 0 0 2.937-1.407l-1.063-.619a2.743 2.743 0 0 1-1.874.807 2.138 2.138 0 0 1-2.248-1.983h5.459zm-5.522-.624a2.12 2.12 0 0 1 2.1-1.851 1.874 1.874 0 0 1 1.955 1.851z" class="cls-2" data-name="패스 44" transform="translate(-15.894 -1.485)"/>
                <g id="그룹_26" data-name="그룹 26">
                    <g id="그룹_7" data-name="그룹 7">
                        <g id="그룹_6" class="cls-3" data-name="그룹 6">
                            <g id="그룹_5" class="cls-4" data-name="그룹 5">
                                <path id="사각형_12" d="M0 0h13.572v21.226H0z" class="cls-5" data-name="사각형 12" transform="translate(-3.31 -3.315)"/>
                            </g>
                        </g>
                    </g>
                    <g id="그룹_10" data-name="그룹 10" transform="translate(1.393 1.403)">
                        <g id="그룹_9" class="cls-6" data-name="그룹 9">
                            <g id="그룹_8" class="cls-4" data-name="그룹 8" transform="translate(-1.393 -1.403)">
                                <path id="사각형_14" d="M0 0h10.79v10.828H0z" class="cls-2" data-name="사각형 14" transform="translate(-1.922 -1.913)"/>
                            </g>
                        </g>
                    </g>
                    <g id="그룹_13" data-name="그룹 13" transform="translate(2.663 2.045)">
                        <g id="그룹_12" class="cls-7" data-name="그룹 12">
                            <g id="그룹_11" class="cls-8" data-name="그룹 11" transform="translate(-2.663 -2.045)">
                                <path id="사각형_16" d="M0 0h9.515v9.544H0z" class="cls-9" data-name="사각형 16" transform="translate(-.647 -1.27)"/>
                            </g>
                        </g>
                    </g>
                    <g id="그룹_16" data-name="그룹 16" transform="translate(6.946 8.608)">
                        <g id="그룹_15" class="cls-10" data-name="그룹 15">
                            <g id="그룹_14" class="cls-4" data-name="그룹 14" transform="translate(-6.946 -7.298)">
                                <path id="사각형_18" d="M0 0h16.627v18.02H0z" class="cls-11" data-name="사각형 18" transform="translate(3.636 3.986)"/>
                            </g>
                        </g>
                    </g>
                    <g id="그룹_19" data-name="그룹 19" transform="translate(11.395 9.49)">
                        <g id="그룹_18" class="cls-6" data-name="그룹 18">
                            <g id="그룹_17" class="cls-4" data-name="그룹 17" transform="translate(-11.395 -8.703)">
                                <path id="사각형_20" d="M0 0h10.79v10.828H0z" class="cls-2" data-name="사각형 20" transform="translate(8.08 5.388)"/>
                            </g>
                        </g>
                    </g>
                    <g id="그룹_22" data-name="그룹 22" transform="translate(12.67 10.121)">
                        <g id="그룹_21" class="cls-12" data-name="그룹 21">
                            <g id="그룹_20" class="cls-4" data-name="그룹 20" transform="translate(-12.67 -9.345)">
                                <path id="사각형_22" d="M0 0h9.515v9.544H0z" class="cls-9" data-name="사각형 22" transform="translate(9.355 6.03)"/>
                            </g>
                        </g>
                    </g>
                    <g id="그룹_25" data-name="그룹 25" transform="translate(0 11.821)">
                        <g id="그룹_24" class="cls-13" data-name="그룹 24">
                            <g id="그룹_23" class="cls-8" data-name="그룹 23" transform="translate(0 -10.512)">
                                <path id="사각형_24" d="M0 0h13.572v14.804H0z" class="cls-9" data-name="사각형 24" transform="translate(-3.31 7.201)"/>
                            </g>
                        </g>
                    </g>
                </g>
            </g>
        </g>
    </g>
</svg>
