<svg xmlns="http://www.w3.org/2000/svg" width="82" height="24" viewBox="0 0 82 24">
    <defs>
        <style>
            .cls-1{fill:#1295aa}.cls-2,.cls-3{fill:#fff}.cls-2{font-size:14px;font-family:AppleSDGothicNeo-Medium,Apple SD Gothic Neo;font-weight:500;letter-spacing:-.01em}
        </style>
    </defs>
    <g id="Play_btn" transform="translate(-348 -73)">
        <rect width="82" height="24" class="cls-1" rx="12" transform="translate(348 73)"/>
        <text id="Return" class="cls-2" transform="translate(394 90.253)">
            <tspan x="-19.278" y="0">돌아가기</tspan>
        </text>
        <path d="M11.455 3.48A6.008 6.008 0 0 0 8.122.382a6.118 6.118 0 0 0-4.593.137 5.875 5.875 0 0 0-3.52 5.05.433.433 0 0 0 .047.3.023.023 0 0 0 .023.023v.023a.555.555 0 0 0 .513.3.618.618 0 0 0 .652-.574 4.624 4.624 0 0 1 2.8-3.994 4.772 4.772 0 0 1 6.294 2.341 4.673 4.673 0 0 1-2.378 6.2 4.809 4.809 0 0 1-3.1.275l.07-.115a.343.343 0 0 0-.03-.395.373.373 0 0 0-.326-.183l-1.7.046a.352.352 0 0 0-.327.206.348.348 0 0 0 0 .367l.886 1.423a.366.366 0 0 0 .35.184.373.373 0 0 0 .326-.184l.14-.252a5.442 5.442 0 0 0 1.818.252A5.937 5.937 0 0 0 11.6 8a5.655 5.655 0 0 0-.145-4.52z" class="cls-3" transform="rotate(180 184.502 45.5)"/>
    </g>
</svg>
