<svg xmlns="http://www.w3.org/2000/svg" viewBox="0 0 1000 560">
    <defs>
        <style>
            .a {
            fill: none;
            stroke: #fff;
            stroke-miterlimit: 10;
            stroke-width: 2px;
            }
        </style>
    </defs>
    <line class="a" x1="496.93" y1="295.41" x2="207.23" y2="3.47"/>
    <line class="a" x1="306.61" y1="1.36" x2="496.93" y2="295.41"/>
    <line class="a" x1="2.5" y1="385.58" x2="1002.5" y2="385.58"/>
    <line class="a" x1="2.5" y1="409.91" x2="1002.5" y2="409.91"/>
    <line class="a" x1="2.5" y1="467.54" x2="1002.5" y2="467.54"/>
    <line class="a" x1="2.82" y1="46.44" x2="496.93" y2="295.41"/>
    <line class="a" x1="401.77" y1="3.47" x2="496.93" y2="295.41"/>
    <line class="a" x1="496.93" y1="295.41" x2="786.63" y2="3.47"/>
    <line class="a" x1="687.24" y1="1.36" x2="496.93" y2="295.41"/>
    <line class="a" x1="1002.5" y1="40.66" x2="496.93" y2="295.41"/>
    <line class="a" x1="592.08" y1="3.47" x2="496.93" y2="295.41"/>
    <line class="a" x1="496.93" y1="295.41" x2="2.5" y2="566.92"/>
    <line class="a" x1="496.93" y1="295.41" x2="207.23" y2="566.92"/>
    <line class="a" x1="496.93" y1="295.41" x2="991.35" y2="566.92"/>
    <line class="a" x1="496.93" y1="295.41" x2="786.63" y2="566.92"/>
    <path class="a" d="M287.94,520.89" transform="translate(83 -8.66)"/>
    <line class="a" x1="207.23" y1="1.36" x2="207.23" y2="566.92"/>
    <line class="a" x1="786.63" y1="1.36" x2="786.63" y2="566.92"/>
    <rect class="a" x="2.5" y="3.47" width="1000" height="563.45"/>
</svg>
